<?xml version="1.0" standalone="no"?>
<!DOCTYPE svg PUBLIC "-//W3C//DTD SVG 20010904//EN"
 "http://www.w3.org/TR/2001/REC-SVG-20010904/DTD/svg10.dtd">
<svg version="1.0" xmlns="http://www.w3.org/2000/svg"
 width="700.000000pt" height="700.000000pt" viewBox="0 0 700.000000 700.000000"
 preserveAspectRatio="xMidYMid meet">
<metadata>
Created by potrace 1.11, written by Peter Selinger 2001-2013
</metadata>
<g transform="translate(0.000000,700.000000) scale(0.100000,-0.100000)"
fill="#000000" stroke="none">
<path d="M2510 6504 c-531 -58 -970 -106 -975 -108 -6 -2 -354 -472 -773
-1045 l-762 -1040 1746 -2068 c960 -1137 1749 -2068 1754 -2068 5 0 794 931
1754 2068 l1746 2068 -751 1027 c-414 565 -759 1034 -768 1043 -13 14 -193 36
-966 118 -522 56 -970 103 -995 106 -25 2 -479 -43 -1010 -101z m1420 -607
c412 -92 668 -337 731 -701 15 -86 7 -271 -15 -351 -43 -154 -160 -331 -279
-421 -69 -52 -202 -119 -259 -129 -63 -12 -43 -29 55 -48 225 -44 430 -177
547 -355 122 -185 167 -427 125 -668 -64 -366 -292 -614 -670 -729 -192 -59
-172 -58 -1052 -62 l-813 -4 0 1746 0 1746 778 -4 c677 -3 787 -6 852 -20z"/>
<path d="M2735 5528 c-3 -7 -4 -260 -3 -563 l3 -550 340 -3 c475 -4 635 11
800 73 230 86 355 270 355 519 -1 252 -147 436 -400 501 -102 26 -266 35 -693
35 -309 0 -399 -3 -402 -12z"/>
<path d="M2730 3425 l0 -615 478 0 c613 0 698 9 882 97 206 99 310 272 310
518 0 359 -222 560 -669 605 -57 5 -305 10 -552 10 l-449 0 0 -615z"/>
</g>
</svg>
