<?xml version="1.0" encoding="UTF-8"?>
<svg width="72px" height="64px" viewBox="0 0 72 64" version="1.1" xmlns="http://www.w3.org/2000/svg" xmlns:xlink="http://www.w3.org/1999/xlink">
    <!-- Generator: Sketch 49.1 (51147) - http://www.bohemiancoding.com/sketch -->
    <title>logo/flat</title>
    <desc>Created with Sketch.</desc>
    <defs></defs>
    <g id="logo/flat" stroke="none" stroke-width="1" fill="none" fill-rule="evenodd">
        <path d="M17.3383519,4.98929553 L3.20599844,24.0640338 L36.0000001,62.4602456 L68.7940016,24.0640338 L54.6616483,4.98929553 L36.0000001,3.00563357 L17.3383519,4.98929553 Z" id="Shape" stroke="#FDB300" stroke-width="2" fill-rule="nonzero"></path>
        <path d="M26.3328195,39.4226804 L26.3328195,12 L37.0729034,12 C41.7677431,12 44.9452162,14.7364734 44.9452162,18.8411834 C44.9452162,21.6952801 42.8542953,24.3521847 40.2123125,24.8270027 L40.2123125,24.9792211 C43.9382522,25.4540391 46.3328195,28.0772134 46.3328195,31.725268 C46.3328195,36.552151 42.8724622,39.4226804 37.0374347,39.4226804 L26.3328195,39.4226804 Z M29.7542477,23.8202849 L35.2285329,23.8202849 C39.277151,23.8202849 41.4822636,22.2046932 41.4822636,19.2364326 C41.4822636,16.5189865 39.6197263,15.0175586 36.2917277,15.0175586 L29.7542477,15.0175586 L29.7542477,23.8202849 Z M36.5209764,36.4007974 C40.6457223,36.4007974 42.812771,34.7281237 42.812771,31.5574817 C42.812771,28.3868397 40.5695944,26.7686533 36.1982981,26.7686533 L29.7542477,26.7686533 L29.7542477,36.403392 L36.5209764,36.4007974 Z" id="Shape" fill="#FDB300" fill-rule="nonzero"></path>
    </g>
</svg>